<?xml version="1.0" encoding="UTF-8"?>
<svg width="700pt" height="700pt" version="1.1" viewBox="0 0 700 700" xmlns="http://www.w3.org/2000/svg">
 <path d="m350 19.598c71.902 0 137.02 29.156 184.12 76.273 47.121 47.113 76.273 112.22 76.273 184.12s-29.156 137.02-76.273 184.12c-47.113 47.121-112.22 76.273-184.12 76.273s-137.02-29.156-184.12-76.273c-47.121-47.113-76.273-112.22-76.273-184.12s29.156-137.02 76.273-184.12c47.113-47.121 112.22-76.273 184.12-76.273zm-8.3984 122.91c0-4.6367 3.7617-8.3984 8.3984-8.3984s8.3984 3.7617 8.3984 8.3984v148.17c0 4.6367-3.7617 8.3984-8.3984 8.3984s-8.3984-3.7617-8.3984-8.3984zm73.191 42.035c-3.8242-2.6055-4.8086-7.8242-2.2031-11.648 2.6055-3.8242 7.8242-4.8086 11.648-2.2031 17.777 12.098 32.469 28.449 42.594 47.574 9.7617 18.445 15.305 39.473 15.305 61.738 0 36.492-14.797 69.535-38.699 93.438s-56.949 38.699-93.438 38.699c-36.492 0-69.535-14.797-93.438-38.699s-38.699-56.949-38.699-93.438c0-22.262 5.543-43.289 15.305-61.738 10.125-19.129 24.816-35.48 42.594-47.574 3.8242-2.6055 9.043-1.6211 11.648 2.2031 2.6055 3.8242 1.6211 9.043-2.2031 11.648-15.551 10.582-28.383 24.852-37.211 41.531-8.5078 16.074-13.336 34.434-13.336 53.934 0 31.855 12.91 60.691 33.777 81.559s49.707 33.777 81.559 33.777c31.855 0 60.691-12.91 81.559-33.777 20.867-20.867 33.777-49.707 33.777-81.559 0-19.5-4.8281-37.859-13.336-53.934-8.8281-16.68-21.66-30.949-37.211-41.531zm107.45-76.785c-44.07-44.078-104.98-71.355-172.25-71.355s-128.18 27.277-172.25 71.355c-44.078 44.07-71.355 104.98-71.355 172.25s27.277 128.18 71.355 172.25c44.07 44.078 104.98 71.355 172.25 71.355s128.18-27.277 172.25-71.355c44.078-44.07 71.355-104.98 71.355-172.25s-27.277-128.18-71.355-172.25z"/>
</svg>
